<svg xmlns="http://www.w3.org/2000/svg" width="512" height="512" version="1"><path fill="#69499e" d="M256 56a200 200 0 1 0 1 401 200 200 0 0 0-1-401zm0 47a153 153 0 1 1 0 307 153 153 0 1 1 0-307zm4 51c-39-1-78 25-88 64a131 131 0 0 0 10 102 85 85 0 0 0 73 38c19 1 40-1 58-10 8-7 2-19 4-29 1-6-5-13-11-10-23 5-48 11-70 0-19-11-24-35-23-55 0-20 7-42 26-52s43-5 62 4c8 1 15-7 17-15l9-20c-20-12-44-18-67-17z" font-family="Open Sans" font-size="250" font-weight="700" letter-spacing="0" style="text-align:start;line-height:125%;-inkscape-font-specification:Open Sans Bold" word-spacing="0"/></svg>